<svg id="Layer_1" data-name="Layer 1" xmlns="http://www.w3.org/2000/svg" viewBox="0 0 623.43 537.19"><defs><style>.cls-1{fill:#ffa69f;}.cls-2{fill:#ff6c39;}.cls-3{fill:#44180f;}.cls-4{fill:#b74646;}.cls-5{fill:#ffc7a1;}.cls-6{fill:#f7ecd5;}.cls-7{fill:#ffb8b0;}</style></defs><rect class="cls-1" x="161.29" y="136.29" width="45.63" height="40.04" rx="4.72"/><circle class="cls-2" cx="194.32" cy="149.99" r="5.21"/><path class="cls-3" d="M177.36,155.47l-12,20.85h29l-12-20.85A2.87,2.87,0,0,0,177.36,155.47Z"/><rect class="cls-4" x="122.91" y="307.58" width="12.31" height="156.98"/><rect class="cls-4" x="112.43" y="462.06" width="33.28" height="12.2" rx="2.81"/><rect class="cls-4" x="465.61" y="307.58" width="12.31" height="156.98"/><rect class="cls-5" x="107.89" y="248.49" width="389.6" height="65.59" rx="10.87"/><path class="cls-4" d="M247.18,302.51H127.8a8.94,8.94,0,0,1-8.93-8.92V268.06a8.94,8.94,0,0,1,8.93-8.92H247.18a8.93,8.93,0,0,1,8.92,8.92v25.53A8.93,8.93,0,0,1,247.18,302.51ZM127.8,261.18a6.89,6.89,0,0,0-6.89,6.88v25.53a6.89,6.89,0,0,0,6.89,6.88H247.18a6.89,6.89,0,0,0,6.88-6.88V268.06a6.89,6.89,0,0,0-6.88-6.88Z"/><path class="cls-4" d="M477,302.51H357.64a8.93,8.93,0,0,1-8.92-8.92V268.06a8.93,8.93,0,0,1,8.92-8.92H477a8.94,8.94,0,0,1,8.93,8.92v25.53A8.94,8.94,0,0,1,477,302.51ZM357.64,261.18a6.89,6.89,0,0,0-6.88,6.88v25.53a6.89,6.89,0,0,0,6.88,6.88H477a6.89,6.89,0,0,0,6.89-6.88V268.06a6.89,6.89,0,0,0-6.89-6.88Z"/><rect class="cls-3" x="305.14" y="214.62" width="31.59" height="32.94"/><rect class="cls-6" x="221.53" y="104.67" width="189.36" height="109.95" rx="9.4"/><rect class="cls-1" x="238.56" y="120.59" width="59.28" height="52.72" rx="5.74"/><path class="cls-2" d="M382.2,174.33H334.39a6.76,6.76,0,0,1-6.76-6.76V126.32a6.76,6.76,0,0,1,6.76-6.75H382.2a6.76,6.76,0,0,1,6.75,6.75v41.25A6.76,6.76,0,0,1,382.2,174.33Zm-47.81-52.72a4.72,4.72,0,0,0-4.72,4.71v41.25a4.73,4.73,0,0,0,4.72,4.72H382.2a4.72,4.72,0,0,0,4.71-4.72V126.32a4.71,4.71,0,0,0-4.71-4.71Z"/><rect class="cls-2" x="240.22" y="181.14" width="57.63" height="27.59" rx="4.6"/><path class="cls-2" d="M389.7,188.38h-81a1,1,0,1,1,0-2h81a1,1,0,1,1,0,2Z"/><path class="cls-2" d="M389.7,199.44h-81a1,1,0,0,1,0-2h81a1,1,0,1,1,0,2Z"/><rect class="cls-6" x="139.12" y="55.53" width="54.29" height="68.81" rx="5.74"/><circle class="cls-1" cx="165.97" cy="56.69" r="7.26"/><path class="cls-4" d="M183.29,76.94H150a1,1,0,0,1,0-2h33.32a1,1,0,1,1,0,2Z"/><path class="cls-4" d="M183.29,88.11H150a1,1,0,0,1,0-2h33.32a1,1,0,0,1,0,2Z"/><path class="cls-4" d="M171.92,99.28H150a1,1,0,0,1,0-2h21.95a1,1,0,0,1,0,2Z"/><rect class="cls-5" x="461.26" y="102.35" width="54.29" height="68.81" rx="5.74"/><path class="cls-4" d="M505.43,123.76H472.1a1,1,0,0,1,0-2h33.33a1,1,0,0,1,0,2Z"/><path class="cls-4" d="M505.43,134.92H472.1a1,1,0,0,1,0-2h33.33a1,1,0,0,1,0,2Z"/><path class="cls-4" d="M494.06,146.09h-22a1,1,0,0,1,0-2h22a1,1,0,0,1,0,2Z"/><rect class="cls-4" x="455.13" y="462.06" width="33.28" height="12.2" rx="2.81"/><path class="cls-3" d="M312.87,96.52h21.56a7.73,7.73,0,0,1,7.73,7.73v0a.93.93,0,0,1-.93.93H306.07a.93.93,0,0,1-.93-.93v0a7.73,7.73,0,0,1,7.73-7.73Z"/><circle class="cls-7" cx="327.78" cy="100.89" r="2.7"/></svg>