<svg id="Layer_1" data-name="Layer 1" xmlns="http://www.w3.org/2000/svg" viewBox="0 0 1000 1000"><defs><style>.cls-1{fill:#ff6c39;}.cls-2{fill:#ffc7a1;}.cls-3{fill:#ffa69f;}.cls-4{fill:#f7ecd5;}.cls-5{fill:#44180f;}.cls-6{fill:#b74646;}</style></defs><path class="cls-1" d="M744.91,841.71s27.17-26.45,90.54-26.13a.87.87,0,0,0,.44-1.63l-13.95-8.09a1.35,1.35,0,0,1,.12-2.4l10.09-4.5a.88.88,0,0,0-.12-1.64l-12.89-3.61a1.35,1.35,0,0,1-.24-2.5l11.63-5.89a.88.88,0,0,0-.23-1.64,84.6,84.6,0,0,0-13.54-1.43c-21.76-.54-38.83,7.49-48.24,13Z"/><polygon class="cls-1" points="623.96 722.14 238.99 665.13 391.07 123.07 786.04 172.63 623.96 722.14"/><polygon class="cls-2" points="580.57 795.04 209.66 677.24 446.42 166.45 828.39 278.5 580.57 795.04"/><rect class="cls-3" x="199.82" y="252.59" width="403.83" height="589.81" transform="translate(-101.74 91.81) rotate(-11.58)"/><polygon class="cls-4" points="628.19 786.27 207.64 814.48 196.44 193.12 603.16 193.12 628.19 786.27"/><rect class="cls-5" x="239.43" y="257.85" width="323.25" height="221.73" rx="15.01" transform="translate(-11.79 13.25) rotate(-1.86)"/><path class="cls-6" d="M276.17,623.91a3,3,0,0,1-.05-6l266.1-5.1h.06a3,3,0,0,1,.05,6l-266.1,5.1Z"/><path class="cls-6" d="M273.23,672.24a3,3,0,0,1-.06-6l266.11-5.1h.05a3,3,0,0,1,.06,6l-266.1,5.09Z"/><path class="cls-2" d="M239.85,384.51l50.09-78.66,57.35,78.66,6.47,96.67-92.93,3.15A17.91,17.91,0,0,1,242.31,467Z"/><path class="cls-1" d="M289.94,305.85l57.17,78.66,216-4.44c-.85-26.22-2-59.82-2.82-86-67.17,2.41-135.15,7-202.32,9.39Z"/><path class="cls-6" d="M459.18,340.38h-.06c-7.67,0-13.63-6.55-13.88-6.82a2,2,0,1,1,3-2.68c.06.07,5.07,5.49,11,5.5h0c2.91,0,5.64-1.37,8.12-4.07a3.82,3.82,0,0,1,5.31-.37c4,3.38,12,7.6,20.32-2.13a2,2,0,0,1,3,2.6c-11.17,13-22.41,5.52-25.8,2.69C466.92,338.61,463.22,340.38,459.18,340.38Z"/><path class="cls-2" d="M457.09,381.73,506.4,296.2,563,374.63l3.24,79.92a19.41,19.41,0,0,1-18.87,20.17l-83.65,2.4Z"/><path class="cls-6" d="M347.5,341.87h-.06c-7.67,0-13.63-6.55-13.88-6.83a2,2,0,0,1,3-2.68c.06.07,5.07,5.5,11,5.51h0c2.91,0,5.64-1.37,8.12-4.07a3.83,3.83,0,0,1,5.31-.38c4,3.39,11.95,7.61,20.32-2.13a2,2,0,0,1,3,2.61c-11.17,13-22.41,5.51-25.8,2.69C355.24,340.09,351.54,341.87,347.5,341.87Z"/><path class="cls-6" d="M363.32,362.4h-.06c-7.67,0-13.63-6.55-13.88-6.83a2,2,0,0,1,3-2.68c.06.07,5.07,5.49,10.95,5.51h0c2.91,0,5.64-1.37,8.12-4.08a3.83,3.83,0,0,1,5.31-.37c4,3.38,12,7.61,20.32-2.13a2,2,0,0,1,3,2.61c-11.17,13-22.41,5.51-25.8,2.69C371.06,360.62,367.36,362.4,363.32,362.4Z"/><polygon class="cls-2" points="347.29 384.51 398.57 303.22 457.09 381.95 463.68 477.6 353.76 481.18 347.29 384.51"/><circle class="cls-4" cx="398.77" cy="358.26" r="13.59"/><circle class="cls-4" cx="510.18" cy="349.07" r="13.59"/><path class="cls-6" d="M415.67,479.28l-23,.53L391.09,413a10,10,0,0,1,9.72-10.17l3.13-.08a9.94,9.94,0,0,1,10.17,9.72Z"/><path class="cls-6" d="M305.62,482.74l-23,.8.65-70.09a11.51,11.51,0,0,1,11.62-11.4h0a11.51,11.51,0,0,1,11.41,11.62Z"/><path class="cls-6" d="M530.21,475.39l-23.19.8-5.15-61.26a11.5,11.5,0,0,1,10.5-12.43h0A11.5,11.5,0,0,1,524.81,413Z"/><rect class="cls-4" x="253.83" y="392.2" width="16.7" height="33.21" rx="7.22" transform="translate(3.82 -2.43) rotate(0.53)"/><rect class="cls-4" x="475.13" y="377.8" width="16.7" height="39.08" rx="7.22" transform="translate(-12.67 15.94) rotate(-1.86)"/><rect class="cls-4" x="536.62" y="374.53" width="16.7" height="39.08" rx="7.22" transform="translate(-12.53 17.94) rotate(-1.86)"/><rect class="cls-4" x="318.34" y="392.2" width="16.7" height="33.21" rx="7.22"/><path class="cls-5" d="M204.94,762.74A13.61,13.61,0,0,0,187.55,771l-11,31a13.61,13.61,0,0,0,8.28,17.39l44,15.62,17.76-57.46Z"/><path class="cls-1" d="M298.62,796l-52-18.43L228.89,835l49.64,17.6a13.61,13.61,0,0,0,17.39-8.28l11-31A13.62,13.62,0,0,0,298.62,796Z"/><path class="cls-6" d="M520.74,543.3a27.64,27.64,0,0,1-16.64,8.25c-7.37,1-14.33-1-21.41-2.79a62.37,62.37,0,0,0-11-1.87,30.86,30.86,0,0,0-10.59,1.31c-6.59,2-12.44,5.65-18.76,8.25a60.06,60.06,0,0,1-22.23,4.34c-3.74,0-7.63.18-11.3-.65a10.78,10.78,0,0,1-6.77-4.41c-1.64-2.1-3.29-5.05-5.92-6.57a15.74,15.74,0,0,0-9.35-1.63c-3.55.37-6.86,1.54-10.32,2.35a18.51,18.51,0,0,1-4.91.56,8.86,8.86,0,0,1-4.55-1.67c-3.19-2.07-6.29-3.45-10.18-3.48a29.37,29.37,0,0,0-10.92,2.36c-2.57,1-5,2.29-7.55,3.37a21.92,21.92,0,0,1-7.23,2,6.77,6.77,0,0,1-.9,0c.62,0-.28-.06-.35-.08a4.73,4.73,0,0,1-.81-.25c.49.21-.06,0-.18-.12s-.57-.44-.19-.11c-.05,0-.64-.7-.28-.22a4.5,4.5,0,0,1-.43-.73l0-.08q-.11-.29-.18-.57A15.6,15.6,0,0,1,328,544,45.53,45.53,0,0,1,335.32,528a52.73,52.73,0,0,1,12.94-13.25,37.74,37.74,0,0,1,7.82-4.3c.67-.26,1.35-.49,2-.71.34-.1.69-.18,1-.29s.58.07-.09,0c1,.15-.5-.25.13,0a1.68,1.68,0,0,1-1.28-1.28c.28.78.11-.59,0,.1,0,.29-.22,1.3,0,.33a23.52,23.52,0,0,1-.62,2.33c-.14.44-.3.87-.47,1.3l-.27.66c.28-.68,0,.08-.09.18-.45,1-.9,2-1.4,2.9a43.37,43.37,0,0,1-6.24,9.28c-8.57,9.62-19.91,16.14-31.67,21.11-6,2.53-12.12,4.68-18.27,6.76-6.85,2.31-13.9,4.9-21.2,5.12a22.51,22.51,0,0,1-9.64-1.62,3.1,3.1,0,0,0-4.11,1.08c-.74,1.27-.41,3.45,1.08,4.1,7.71,3.37,16,2.74,24,.69a219.21,219.21,0,0,0,20.86-6.86c13.16-4.83,26.14-10.71,36.87-19.91,7.36-6.31,13.72-14.41,16.58-23.81.56-1.85,1-4,.17-5.79-1-2.39-3.5-3-5.85-2.42-6.55,1.51-12.64,5.63-17.6,10A61.35,61.35,0,0,0,327,530.13c-2.92,5.35-5.28,11.37-5.51,17.52-.11,3.09.47,6.52,2.74,8.79s5.45,2.79,8.44,2.42a32.77,32.77,0,0,0,9.34-2.94c1.33-.59,2.64-1.22,4-1.83l.77-.35.37-.16s-.45.18-.14.06c.91-.37,1.83-.72,2.77-1,3.25-1.08,6.83-1.87,10.2-.86a19.65,19.65,0,0,1,4.58,2.56,14.09,14.09,0,0,0,6.16,2.06c4,.41,8-.83,11.75-1.89a30.23,30.23,0,0,1,4.34-1,14.93,14.93,0,0,1,4.2.07,5.56,5.56,0,0,1,3.11,1.49,33.58,33.58,0,0,1,2.72,3.6,18,18,0,0,0,7.75,6.42c3.76,1.52,8,1.64,12.05,1.67a86.05,86.05,0,0,0,12.93-.74c8-1.13,15.21-3.94,22.39-7.47,6.17-3,12.49-6.08,19.54-5.69,7.91.44,15.4,3.59,23.24,4.59a37.82,37.82,0,0,0,21.81-3.55,31.35,31.35,0,0,0,8.49-6.38c2.66-2.8-1.58-7-4.24-4.24Z"/><path class="cls-2" d="M688.3,704.14A80.87,80.87,0,1,0,769.17,785,80.87,80.87,0,0,0,688.3,704.14Zm0,120.89a40,40,0,1,1,40-40A40,40,0,0,1,688.3,825Z"/><rect class="cls-5" x="522.63" y="525.49" width="8.3" height="26.76" rx="4.15" transform="translate(461.32 -211.86) rotate(39.37)"/><path class="cls-6" d="M540.82,264.67a14.33,14.33,0,0,1-14.31-14.31v-59a14.31,14.31,0,0,1,28.62,0v1.8a2,2,0,0,1-4,0v-1.8a10.31,10.31,0,0,0-20.62,0v59a10.31,10.31,0,1,0,20.62,0V216.08a6,6,0,0,0-12,0V231.2a6,6,0,0,0,6,6h2.62a2,2,0,0,1,0,4h-2.62a10,10,0,0,1-10-10V216.08a10,10,0,0,1,20,0v34.28A14.33,14.33,0,0,1,540.82,264.67Z"/><path class="cls-6" d="M221.64,590a12.15,12.15,0,0,1-10.54-6.06l-35.32-60.47a12.14,12.14,0,1,1,21-12.17l14,24.23a2,2,0,1,1-3.46,2l-14-24.23a8.15,8.15,0,0,0-14.1,8.16l35.32,60.47a8.14,8.14,0,0,0,14.11-8.14L214.53,549.3a4.61,4.61,0,0,0-8,4.61l6.24,10.79a4.61,4.61,0,0,0,6.29,1.69l1.87-1.08a2,2,0,0,1,2,3.46l-1.87,1.08a8.61,8.61,0,0,1-11.75-3.15l-6.24-10.78A8.61,8.61,0,0,1,218,547.3l14.13,24.46A12.13,12.13,0,0,1,221.64,590Z"/><path class="cls-3" d="M551.25,485.46l-24.6,36.4a10.66,10.66,0,0,0,2.07,14.22h0a10.66,10.66,0,0,0,14.37-.77L573.85,504Z"/><path class="cls-6" d="M761.2,254.21a2,2,0,0,1-1.55-3.27L771.15,237a2,2,0,1,1,3.08,2.55l-11.49,13.93A2,2,0,0,1,761.2,254.21Z"/><path class="cls-6" d="M801,331a2,2,0,0,1-2-1.71l-13.5-92.91a2,2,0,1,1,4-.57l13.5,92.9a2,2,0,0,1-1.69,2.27A1.46,1.46,0,0,1,801,331Z"/><circle class="cls-3" cx="802.71" cy="337.68" r="8.72"/><circle class="cls-1" cx="808.61" cy="354.12" r="8.72"/><path class="cls-3" d="M826.23,218a13.84,13.84,0,0,0-12.54-13.78,13.84,13.84,0,0,0-24.13-12.81,13.83,13.83,0,0,0-24.86,8.37,13.68,13.68,0,0,0,1,5.29c-.35,0-.7-.05-1-.05a13.85,13.85,0,0,0-.08,27.69,13.84,13.84,0,0,0,24.39,13,13.84,13.84,0,0,0,23.92-13.85A13.84,13.84,0,0,0,826.23,218Z"/><circle class="cls-4" cx="788.54" cy="219.05" r="17.35"/><path class="cls-6" d="M800.89,455.87c-5.47,2.25-19.26-76.41-21.9-82.64-8.49-20-30.3-32.3-49.32-40.24l-26.16-11.36a51.4,51.4,0,0,0-38.78-.88l-63.42,24.19a36.84,36.84,0,0,0-12.9,8.17c-4.39,4.35-8.49,10.69-7.32,18.65,0,0-29.11,18.74-12.79,54.57l28.14,65.47s9,17.25,19.84,12.2c0,0,8.21,16.36,20,11.07,0,0,7.7,14.43,17.57,9.38,0,0,5.17-2.42,6.19-10.72Z"/><path class="cls-5" d="M703.66,435.28a2,2,0,0,1-1.89-1.35L697,420.06c-3.8-12.9-9.51-21.38-17-25.29a19.46,19.46,0,0,0-14-1.69,2,2,0,0,1-1.29-3.79,23.15,23.15,0,0,1,17.09,1.89c8.52,4.4,14.93,13.71,19,27.66l4.74,13.79a2,2,0,0,1-1.24,2.54A1.81,1.81,0,0,1,703.66,435.28Z"/><path class="cls-5" d="M616.28,506a2,2,0,0,1-1.47-.64c-19.55-21.11-35-128.75-35.7-133.32a2,2,0,0,1,4-.56c.15,1.11,15.95,111,34.67,131.16a2,2,0,0,1-1.47,3.36Z"/><path class="cls-6" d="M622.11,503.8S640,587.66,737.46,636.6a22.11,22.11,0,0,0,17.46,1c13.25-4.78,39.51-18.22,76.92-55.76L715.64,474.81Z"/><path class="cls-5" d="M769.13,258.72,753.65,246a4.59,4.59,0,0,0-6.48.64L551.25,485.46,573.85,504,769.77,265.2A4.6,4.6,0,0,0,769.13,258.72Z"/><path class="cls-6" d="M733.6,454.55a5.26,5.26,0,0,1-2.57-.72c-6.78-4-40.65-25.37-73.4-73.46-3.13-4.59-6-9.23-9.6-13.51-.64-.76-1.3-1.55-2-2.34-12.51-14.23-35.73-2.44-31.5,16l.06.26c2.57,11.21,6.59,22.1,10.93,32.73,0,0,23,52.1,25.63,67.21,0,0,15.92,124,139.89,134.89a5.23,5.23,0,0,0,3.68-1.08,397.59,397.59,0,0,0,37.12-32.67c6.84-6.82,13.1-13.57,18.83-20.13a18.67,18.67,0,0,0,.94-23.39q-8-10.74-15.93-22.55a620.23,620.23,0,0,1-34.23-57.2,5.29,5.29,0,0,0-4.58-2.83Z"/><path class="cls-5" d="M752.68,595a75.28,75.28,0,0,1-28.94-6.14c-33.69-14.13-54.24-48.24-65.54-74.37a2,2,0,0,1,3.67-1.59c11,25.45,31,58.66,63.42,72.27,19.22,8.07,33.82,5.39,34,5.37a2,2,0,1,1,.76,3.92A41.81,41.81,0,0,1,752.68,595Z"/><path class="cls-6" d="M171.27,622.38a12.37,12.37,0,0,1-2-.17,12.13,12.13,0,0,1-10-14l10.8-66.64a12.14,12.14,0,1,1,24,4l-4.58,27.6a2,2,0,1,1-4-.65l4.58-27.6A8.15,8.15,0,0,0,174,542.25l-10.79,66.64a8.15,8.15,0,0,0,6.7,9.38,8.16,8.16,0,0,0,9.37-6.71l4.63-27.87a4.61,4.61,0,1,0-9.09-1.51l-2.05,12.29a4.61,4.61,0,0,0,3.79,5.3l2.13.36a2,2,0,1,1-.66,3.94l-2.12-.35a8.6,8.6,0,0,1-7.08-9.9l2-12.29a8.61,8.61,0,1,1,17,2.82l-4.63,27.87A12.15,12.15,0,0,1,171.27,622.38Z"/><path class="cls-5" d="M631.51,518.28a12.92,12.92,0,0,1-7.6-2.58,2,2,0,0,1,2.52-3.11,8.48,8.48,0,0,0,8.93.7c3-1.54,3.47-11.85,2.87-18.33-2.84-28.58,3-39.26,3.24-39.7a2,2,0,1,1,3.48,2c-.05.09-5.43,10.27-2.74,37.34a67.18,67.18,0,0,1,.12,9.39c-.43,7.1-2.11,11.32-5.14,12.88A12.15,12.15,0,0,1,631.51,518.28Z"/><path class="cls-5" d="M649.67,527.69c-4.25,0-7.49-2.78-9.7-4.68a22.2,22.2,0,0,1-5.48-7,2,2,0,1,1,3.57-1.79,18.56,18.56,0,0,0,4.51,5.81c2.12,1.81,4.75,4.08,7.86,3.66,1.51-.2,3.74-1.12,5.79-4.37a10.77,10.77,0,0,0,1.63-6,2,2,0,0,1,2-2h0a2,2,0,0,1,2,2,14.73,14.73,0,0,1-2.25,8.19c-2.88,4.56-6.29,5.88-8.64,6.2A11.45,11.45,0,0,1,649.67,527.69Z"/><path class="cls-5" d="M660,515.74a2,2,0,0,1-1.87-1.3c-1.32-3.53-2.55-7.14-3.65-10.73l-.1-.32a155.05,155.05,0,0,1-4.14-17.58c-3.58-19.64-16.13-47-16.26-47.23-24.65-53.45-25.94-73.34-22.68-80.61,1.12-2.52,2.66-3.15,3.1-3.29,8.53-2.15,13.56,7.9,16.57,13.91l.71,1.41c6.4,12.44,6.44,30.35-5.73,39.86,3.09,7.79,6.92,16.75,11.66,27,.53,1.14,12.89,28.06,16.57,48.19a149.32,149.32,0,0,0,4,17.13l.09.31c1.08,3.52,2.29,7.05,3.58,10.5a2,2,0,0,1-1.18,2.58A2.11,2.11,0,0,1,660,515.74Zm-44.3-157.26c-.72.61-6.66,7.24,8.72,47.45,9.52-8.37,9.18-23.46,3.71-34.1-.23-.44-.48-.93-.74-1.45C625,365.51,620.94,357.41,615.73,358.48Zm.07-.05Z"/><path class="cls-5" d="M745.34,458c-37.59,0-89.56-76.78-91.91-80.27-12-18.81-21.39-23.39-27.19-23.93a11.53,11.53,0,0,0-9.14,2.88,2,2,0,0,1-2.92-2.73,15.54,15.54,0,0,1,12.43-4.13c9.73.9,19.88,9.56,30.17,25.72.57.85,60.05,88.77,94.94,77.49a2,2,0,0,1,1.23,3.81A24.64,24.64,0,0,1,745.34,458Z"/><path class="cls-5" d="M626.9,517.07a2,2,0,0,1-1-.3,2,2,0,0,1-.65-2.75c5-8.12.83-21.79-3.72-28.9-4.13-6.45-11.4-9.59-18.08-7.82a2,2,0,1,1-1-3.86c8.37-2.23,17.4,1.6,22.48,9.52,4.76,7.44,10,23,3.75,33.16A2,2,0,0,1,626.9,517.07Z"/><path class="cls-1" d="M349.48,480.25a2,2,0,0,1-2-1.95l-2.19-93.74a2,2,0,0,1,2-2.05h.05a2,2,0,0,1,2,1.95l2.19,93.75a2,2,0,0,1-2,2Z"/><path class="cls-1" d="M459.34,476.77a2,2,0,0,1-2-2l-2.18-93.74a2,2,0,0,1,1.95-2,2,2,0,0,1,2.05,2l2.18,93.74a2,2,0,0,1-1.95,2Z"/><path class="cls-3" d="M476,461.69a49.09,49.09,0,0,1,3.24-17.58,25.26,25.26,0,0,0-33.17,34.06l32.4-1.05A49.23,49.23,0,0,1,476,461.69Z"/><path class="cls-3" d="M525.39,412.34a49.34,49.34,0,0,0-46.11,31.77,25.29,25.29,0,0,1,12.94,32.56l60.3-2a15.88,15.88,0,0,0,7.31-3c7.19-5.46,6.47-15.35,6.39-16.24l-.93-23.33A52.82,52.82,0,0,0,540,414.54,49.47,49.47,0,0,0,525.39,412.34Z"/><path class="cls-3" d="M479.28,444.11a49.37,49.37,0,0,0-.77,33l13.71-.45a25.29,25.29,0,0,0-12.94-32.56Z"/><path class="cls-3" d="M260.49,484.21,327.74,482a15.78,15.78,0,0,1-1.05-5.65c0-7.81,5.7-14.48,13.76-17.21-5.94-18.52-28.3-32.29-55-32.29-17.61,0-33.34,6-43.72,15.39q.3,12.45.59,24.91a15.81,15.81,0,0,0,18.17,17Z"/><path class="cls-3" d="M348.54,457.83a25.13,25.13,0,0,0-8.09,1.33,31.92,31.92,0,0,1-1.07,22.49l30.4-1a15.72,15.72,0,0,0,.62-4.29C370.4,466.13,360.61,457.83,348.54,457.83Z"/><path class="cls-3" d="M326.69,476.37a15.78,15.78,0,0,0,1.05,5.65l11.64-.37a31.92,31.92,0,0,0,1.07-22.49C332.39,461.89,326.69,468.56,326.69,476.37Z"/><path class="cls-6" d="M558.6,324.13h0c-5.73,0-10.65-5.32-10.72-5.4a2.32,2.32,0,0,0-3.44,3.1c.26.28,6.31,6.9,14.12,6.93h.06a14.21,14.21,0,0,0,2.85-.3l-.15-4.77A8.87,8.87,0,0,1,558.6,324.13Z"/><path class="cls-1" d="M688.3,849.87A64.87,64.87,0,1,1,753.17,785,64.93,64.93,0,0,1,688.3,849.87Zm0-125.73A60.87,60.87,0,1,0,749.17,785,60.94,60.94,0,0,0,688.3,724.14Z"/><path class="cls-3" d="M757.85,280.11a2,2,0,0,1-1.27-.45l-21.35-17.57a2,2,0,0,1,2.54-3.09l21.35,17.57a2,2,0,0,1-1.27,3.54Z"/></svg>