<svg id="Layer_1" data-name="Layer 1" xmlns="http://www.w3.org/2000/svg" viewBox="0 0 1000 1000"><defs><style>.cls-1{fill:#f7ecd5;}.cls-2{fill:#ffa69f;}.cls-3{fill:#44180f;}.cls-4{fill:#b74646;}.cls-5{fill:#ff6c39;}.cls-6{fill:#ffc7a1;}</style></defs><rect class="cls-1" x="220.53" y="226.04" width="256.24" height="349.56" rx="15.87"/><path class="cls-2" d="M597,292.73l49.39-33.59a5.07,5.07,0,0,1,7.78,3l10,42.39a5.07,5.07,0,0,1-5.68,6.17l-59.35-8.8A5.07,5.07,0,0,1,597,292.73Z"/><rect class="cls-1" x="547.35" y="53.33" width="282.21" height="114.79" rx="15.87"/><path class="cls-2" d="M476.86,205.22H220.44a19.94,19.94,0,0,0-19.94,19.94v351.4a19.94,19.94,0,0,0,19.94,19.94H476.86a19.94,19.94,0,0,0,19.94-19.94V225.16A19.94,19.94,0,0,0,476.86,205.22Zm-.09,354.51A15.86,15.86,0,0,1,460.9,575.6H236.39a15.86,15.86,0,0,1-15.86-15.87V241.9A15.86,15.86,0,0,1,236.39,226H460.9a15.86,15.86,0,0,1,15.87,15.86Z"/><rect class="cls-2" x="220.53" y="330.88" width="256.24" height="17.7"/><path class="cls-3" d="M624.09,270.22l-5.46-27.65a52.12,52.12,0,0,0-22.07-33.1c-19.94-13.32-44.77-7.92-66.59-3-12.34,2.76-32.18,4.76-39.26,16.86-4.35,7.43-2.09,15.06-.68,22.92l72-11.42,18.17,92,6.88-1.36A47.05,47.05,0,0,0,624.09,270.22Z"/><rect class="cls-2" x="220.53" y="451.13" width="256.24" height="17.7"/><rect class="cls-3" x="401.25" y="239.73" width="37.72" height="91.15"/><rect class="cls-4" x="220.53" y="239.73" width="37.72" height="91.15"/><rect class="cls-2" x="257.16" y="239.73" width="25.99" height="91.15"/><rect class="cls-5" x="237.35" y="482.69" width="37.72" height="91.15"/><rect class="cls-2" x="273.99" y="482.69" width="25.99" height="91.15"/><rect class="cls-5" x="438.96" y="239.73" width="37.72" height="91.15"/><rect class="cls-4" x="400.67" y="348.58" width="38.3" height="102.54"/><rect class="cls-3" x="381.38" y="348.58" width="19.29" height="102.54"/><rect class="cls-6" x="320.26" y="390.01" width="19.7" height="102.54" transform="translate(-111.17 771.39) rotate(-90)"/><rect class="cls-2" x="332.49" y="382.53" width="18.49" height="79.29" transform="translate(-80.45 763.91) rotate(-90)"/><rect class="cls-5" x="338.72" y="509.72" width="25.71" height="102.54" transform="translate(-209.43 912.57) rotate(-90)"/><rect class="cls-3" x="350.62" y="495.92" width="25.14" height="79.29" transform="translate(-172.38 898.77) rotate(-90)"/><path class="cls-4" d="M708.64,948.88a4,4,0,0,1-4-4V719.3a4,4,0,0,1,8,0V944.88A4,4,0,0,1,708.64,948.88Z"/><circle class="cls-3" cx="554.36" cy="375.81" r="48.6"/><path class="cls-3" d="M704.86,352.38a56.93,56.93,0,0,0-21.11,2.83c0-.54.1-1.07.13-1.61a50,50,0,1,0-38.45,46,59.66,59.66,0,0,0-.8,6.87,57.23,57.23,0,1,0,60.23-54.05Z"/><rect class="cls-6" x="522.96" y="660.86" width="204.74" height="58.44" rx="11.9"/><path class="cls-1" d="M286.85,569.4a8.32,8.32,0,0,1-8.31-8.31V495.46a8.32,8.32,0,1,1,16.63,0v65.63A8.32,8.32,0,0,1,286.85,569.4Zm0-78.26a4.32,4.32,0,0,0-4.31,4.32v65.63a4.32,4.32,0,0,0,8.63,0V495.46A4.33,4.33,0,0,0,286.85,491.14Z"/><path class="cls-4" d="M824.58,948.88a4,4,0,0,1-4-4V580.25a4,4,0,0,1,8,0V944.88A4,4,0,0,1,824.58,948.88Z"/><path class="cls-4" d="M218.77,948.88a4,4,0,0,1-4-4V580.25a4,4,0,0,1,8,0V944.88A4,4,0,0,1,218.77,948.88Z"/><path class="cls-2" d="M831.68,37H545.23a20,20,0,0,0-20,20V164.49a20,20,0,0,0,20,19.94H831.68a19.94,19.94,0,0,0,19.94-19.94V57A20,20,0,0,0,831.68,37Zm-2.12,115.24a15.87,15.87,0,0,1-15.87,15.86H563.21a15.86,15.86,0,0,1-15.86-15.86V69.19a15.86,15.86,0,0,1,15.86-15.86H813.69a15.87,15.87,0,0,1,15.87,15.86Z"/><path class="cls-4" d="M250.92,557h116a62.66,62.66,0,0,0-14.77-22.93,20.08,20.08,0,0,1-8.34,4.28c-10.83,2.59-19-5.06-19.51-5.59-.29.44-5.71,8.3-15.4,7.92-9.26-.36-14-7.92-14.39-8.51-.55.6-6.81,7.15-16.21,5.83a18.43,18.43,0,0,1-10.75-5.61A62.77,62.77,0,0,0,250.92,557Z"/><path class="cls-3" d="M435.65,431.63H404.56a2,2,0,0,1,0-4h31.09a2,2,0,0,1,0,4Z"/><rect class="cls-5" x="284.87" y="437.17" width="91.81" height="8.21" rx="4.11"/><path class="cls-3" d="M435.65,441.16H404.56a2,2,0,0,1,0-4h31.09a2,2,0,0,1,0,4Z"/><path class="cls-3" d="M435.65,361.59H404.56a2,2,0,0,1,0-4h31.09a2,2,0,0,1,0,4Z"/><path class="cls-3" d="M435.65,371.12H404.56a2,2,0,0,1,0-4h31.09a2,2,0,0,1,0,4Z"/><path class="cls-1" d="M289.07,559a2,2,0,0,1-1.88-1.32c-5-13.69,5.32-26.26,5.76-26.79a2,2,0,0,1,3.07,2.56c-.09.12-9.25,11.36-5.07,22.87a2,2,0,0,1-1.88,2.68Z"/><path class="cls-1" d="M270.16,326.43a8.32,8.32,0,0,1-8.32-8.31V252.49a8.32,8.32,0,0,1,16.63,0v65.63A8.32,8.32,0,0,1,270.16,326.43Zm0-78.25a4.32,4.32,0,0,0-4.32,4.31v65.63a4.32,4.32,0,0,0,8.63,0V252.49A4.31,4.31,0,0,0,270.16,248.18Z"/><rect class="cls-5" x="323.72" y="265.64" width="24.68" height="105.81" transform="translate(17.51 654.6) rotate(-90)"/><circle class="cls-1" cx="297.99" cy="318.54" r="5.77"/><path class="cls-1" d="M382.69,320.54H310.46a2,2,0,0,1,0-4h72.23a2,2,0,0,1,0,4Z"/><path class="cls-1" d="M309.83,559a2,2,0,0,1-2-2V540.73a2,2,0,0,1,4,0V557A2,2,0,0,1,309.83,559Z"/><path class="cls-1" d="M330.28,559a2.22,2.22,0,0,1-.37,0,2,2,0,0,1-1.6-2.34,27,27,0,0,0,.22-8.64,27.52,27.52,0,0,0-5.46-12.88,2,2,0,0,1,3.17-2.44,31.47,31.47,0,0,1,6.25,14.77,31,31,0,0,1-.25,9.93A2,2,0,0,1,330.28,559Z"/><path class="cls-1" d="M268.38,558.57h-.14a2,2,0,0,1-1.86-2.13,36.16,36.16,0,0,1,7.91-20.16,2,2,0,0,1,3.12,2.51,32.08,32.08,0,0,0-7,17.93A2,2,0,0,1,268.38,558.57Z"/><path class="cls-1" d="M351,558.13a2,2,0,0,1-2-1.64,38.15,38.15,0,0,0-9.15-18.58,2,2,0,1,1,3-2.67A41.92,41.92,0,0,1,353,555.77a2,2,0,0,1-1.6,2.33A2.31,2.31,0,0,1,351,558.13Z"/><path class="cls-4" d="M309.58,494.15a2.5,2.5,0,0,1-2.5-2.5V465.8a2.92,2.92,0,0,0-2.92-2.92H278.45a7.92,7.92,0,0,1-7.21-11.21l26-57.16a2.5,2.5,0,1,1,4.55,2.07l-26,57.16a2.93,2.93,0,0,0,2.66,4.14h25.71a7.93,7.93,0,0,1,7.92,7.92v25.85A2.5,2.5,0,0,1,309.58,494.15Z"/><path class="cls-6" d="M274.8,324.22h98.71a38.7,38.7,0,0,1,38.7,38.7v25a7.66,7.66,0,0,1-7.66,7.66H243.76a7.66,7.66,0,0,1-7.66-7.66v-25A38.7,38.7,0,0,1,274.8,324.22Z"/><path class="cls-5" d="M283.15,397.54a2,2,0,0,1-2-1.93l-1.29-38.14c-.12-10.2-5-19-12.68-23a22.63,22.63,0,0,0-12.79-2.28,2,2,0,0,1-2.2-1.78,2,2,0,0,1,1.78-2.2A26.8,26.8,0,0,1,269,330.89c9,4.71,14.68,14.86,14.82,26.49l1.29,38.09a2,2,0,0,1-1.93,2.07Z"/><path class="cls-2" d="M585.49,456.19l29.24-97-74,7.17L568,456.21A9.16,9.16,0,0,0,585.49,456.19Z"/><path class="cls-4" d="M599.11,337.59l-35.26,7.89c-16.77,3.76-39.77,14.83-54.32.17-6.92-7-7.06-16.27-8.42-25.39l-4.45-29.77L490,246.21l84.39-18.89Z"/><path class="cls-3" d="M488.34,236.79c1.47,14.16,11.16,26,24.33,29.9,14.83,4.38,31.32-2.2,39.56-16.15-.05,12.56,7.78,23.26,18.48,26.18,11.75,3.2,21.51-4.47,22.55-5.32q-5.6-26.85-11.2-53.7Z"/><circle class="cls-4" cx="595.84" cy="288.9" r="16.69"/><path class="cls-4" d="M599.33,367l-51.49,12.32-8.94-37.41L597,328l7.36,30.79A6.8,6.8,0,0,1,599.33,367Z"/><path class="cls-3" d="M538.07,329.4a15.64,15.64,0,0,1-9.75-4,2,2,0,1,1,2.73-2.92c.07.07,3.74,3.39,8,2.83,2.81-.38,5.39-2.39,7.65-6a2,2,0,1,1,3.39,2.13c-2.94,4.67-6.49,7.31-10.55,7.84A12.63,12.63,0,0,1,538.07,329.4Z"/><path class="cls-3" d="M513.06,306.73a11.48,11.48,0,0,1-7.65-3.09,2,2,0,1,1,2.75-2.9,7.25,7.25,0,0,0,5.32,2,7.67,7.67,0,0,0,5.75-3.71,2,2,0,1,1,3.48,2c-.31.55-3.19,5.36-9,5.73Z"/><path class="cls-3" d="M552.19,298.39a11.48,11.48,0,0,1-7.65-3.09,2,2,0,0,1,2.76-2.9,7.34,7.34,0,0,0,5.31,2,7.65,7.65,0,0,0,5.75-3.7,2,2,0,1,1,3.49,2c-.31.54-3.18,5.36-9,5.73C552.64,298.39,552.41,298.39,552.19,298.39Z"/><path class="cls-4" d="M571,418.24a2.5,2.5,0,0,1-2.5-2.43l-1.69-55.76a2.5,2.5,0,1,1,5-.15l1.7,55.76a2.51,2.51,0,0,1-2.42,2.58Z"/><path class="cls-4" d="M586.3,415.56a2.51,2.51,0,0,1-2.39-1.77l-15.83-51.47a2.5,2.5,0,0,1,4.78-1.47l15.83,51.47a2.49,2.49,0,0,1-1.65,3.12A2.43,2.43,0,0,1,586.3,415.56Z"/><path class="cls-3" d="M536.05,313.7a1.82,1.82,0,0,1-.33,0c-4.72-.55-6.79-1.63-6.93-3.61,0-.72.22-1.38,1.07-3.36a11.29,11.29,0,0,0,.42-4.74c-.58-4.87-1.57-9.9-1.77-10.86a2,2,0,1,1,3.92-.79c.2,1,1.23,6.15,1.83,11.18a15.23,15.23,0,0,1-.7,6.74c-.1.23-.25.57-.39.91a22.13,22.13,0,0,0,3,.56,2,2,0,0,1-.14,4Z"/><path class="cls-4" d="M485.15,630.26A57.51,57.51,0,0,0,458.79,592c-15.53-9.36-37.49-12.52-61.85,14.64,0,0-15.48,16.69-2.67,73.66L431.69,828.2,516.63,811Z"/><polygon class="cls-1" points="431.69 828.2 448.95 896.38 528.69 880.18 516.63 810.97 431.69 828.2"/><path class="cls-3" d="M530.91,879.47l6.69,32.95c2.06,10.12-4,19.9-13.47,21.83L383.42,962.83c-5.3,1.08-10.42-3.73-10.24-9.77V953c.81-24,31.32-45.58,74.59-56.59Z"/><path class="cls-5" d="M428.08,928.39a2,2,0,0,1-1.56-.74L413.12,911a2,2,0,0,1,3.12-2.51l13.4,16.67a2,2,0,0,1-.31,2.81A2,2,0,0,1,428.08,928.39Z"/><path class="cls-5" d="M450.76,918a2,2,0,0,1-1.56-.75l-13.4-16.66a2,2,0,0,1,3.12-2.51l13.39,16.67a2,2,0,0,1-.3,2.81A2,2,0,0,1,450.76,918Z"/><rect class="cls-5" x="438.96" y="348.58" width="37.81" height="102.54"/><path class="cls-4" d="M568.09,619a57.46,57.46,0,0,0-31-34.64c-21.09-9.32-49.64,1.08-59.72,21.84-10.7,22-.84,52.69,6.85,73.88l55.75,142,82.09-27.79Z"/><polygon class="cls-1" points="540 822.13 565.7 887.6 642.77 861.48 622.09 794.34 540 822.13"/><path class="cls-3" d="M644.88,860.5l10.8,31.84c3.31,9.78-1.44,20.24-10.62,23.35l-136,46.08c-5.12,1.74-10.81-2.39-11.39-8.4v-.11c-2.22-23.91,25.33-49.15,66.86-65.53Z"/><path class="cls-4" d="M473.37,432.13h-31.1a2.5,2.5,0,0,1,0-5h31.1a2.5,2.5,0,0,1,0,5Z"/><path class="cls-4" d="M473.37,441.66h-31.1a2.5,2.5,0,0,1,0-5h31.1a2.5,2.5,0,0,1,0,5Z"/><path class="cls-5" d="M548.78,922a2,2,0,0,1-1.38-.56L532,906.59a2,2,0,0,1,2.77-2.88l15.39,14.85a2,2,0,0,1-1.39,3.44Z"/><path class="cls-5" d="M570,908.8a2,2,0,0,1-1.39-.56l-15.39-14.85a2,2,0,1,1,2.78-2.87l15.39,14.84A2,2,0,0,1,570,908.8Z"/><path class="cls-4" d="M608.06,635.41c-2.19-26.93-17.24-45.63-29-56.33l-65.67,2.37,20,111.41h57.76A84.79,84.79,0,0,0,608.06,635.41Z"/><path class="cls-1" d="M715.76,398.37a67.8,67.8,0,0,0-69.46-42.23l-31.57,3.06-29.24,97a9.16,9.16,0,0,1-17.54,0l-27.26-89.84c-5.85,1.45-10.82,2.7-14.64,3.66l-.81.21a79.13,79.13,0,0,0-53.7,46.29c-.21.5-.42,1-.62,1.5q-30.14,72-61.8,139.87c4,0,57.15-.86,61.13-.86l12.51,0,230.39-.6,51.22-37Z"/><path class="cls-4" d="M603.26,513.89s-46.12,5.31-62.27,20.5l62.27,11.37Z"/><path class="cls-2" d="M612.49,500.86a9.23,9.23,0,0,0-9.23,9.23v55.62a9.23,9.23,0,0,0,9.23,9.23h9.6V500.86Z"/><path class="cls-1" d="M732.24,500.86H622.09v74.08H732.24a37,37,0,0,0,37-37h0A37,37,0,0,0,732.24,500.86Z"/><path class="cls-5" d="M579.08,579.08c11.74,10.7,26.79,29.4,29,56.33a84.79,84.79,0,0,1-16.9,57.45h28.5a74.46,74.46,0,0,0,74.46-74.46V574.94Z"/><path class="cls-6" d="M513.41,549.58l.52-.41a84.32,84.32,0,0,1,103.57-.44l1.11.85Z"/><path class="cls-4" d="M479,559.07a2.39,2.39,0,0,1-.9-.17,2.49,2.49,0,0,1-1.43-3.23l29.18-75.78a2.5,2.5,0,1,1,4.66,1.8l-29.18,75.78A2.49,2.49,0,0,1,479,559.07Z"/><path class="cls-6" d="M414.21,530.07l.56-.31a76.26,76.26,0,0,1,96.1,18.51l.86,1Z"/><path class="cls-4" d="M402,494.61l-18.31,26.74a13.39,13.39,0,0,0,.88,16.27l12.26,14.31a17.15,17.15,0,0,0,12.26,6c22.73,1,88.65,3.06,71.78-7.18l-50.21-9.91a13.84,13.84,0,0,1-10.75-16.92h0a13.85,13.85,0,0,1,17.05-10l31.22,8.45a2.42,2.42,0,0,0,2.56-3.81l-14-18.36a17.3,17.3,0,0,0-10-6.4l-27.05-6.09A17,17,0,0,0,402,494.61Z"/><path class="cls-4" d="M667.8,503.35H624.2a2.5,2.5,0,0,1,0-5h43.38l-14.42-45.53a2.5,2.5,0,0,1,4.77-1.51l14.48,45.75a4.83,4.83,0,0,1-4.61,6.29Zm-.16-4.78h0Z"/><rect class="cls-5" x="135.07" y="903.13" width="168.65" height="47.11" rx="8.55"/><rect class="cls-2" x="143.37" y="875.06" width="148.67" height="28.08" rx="7.57"/><rect class="cls-1" x="159.84" y="847.21" width="103.94" height="27.84" rx="9.17"/><rect class="cls-5" x="510.05" y="549.58" width="116.38" height="7.48" rx="1.97"/><rect class="cls-5" x="402.41" y="539.11" width="112.03" height="7.48" rx="1.81" transform="translate(803.11 1164.16) rotate(-168.84)"/><path class="cls-4" d="M150.86,950.15a2.5,2.5,0,0,1-2.5-2.5V906a2.5,2.5,0,0,1,5,0v41.61A2.5,2.5,0,0,1,150.86,950.15Z"/><path class="cls-4" d="M165,950.15a2.5,2.5,0,0,1-2.5-2.5V906a2.5,2.5,0,0,1,5,0v41.61A2.5,2.5,0,0,1,165,950.15Z"/><path class="cls-4" d="M274.13,950.15a2.5,2.5,0,0,1-2.5-2.5V906a2.5,2.5,0,0,1,5,0v41.61A2.5,2.5,0,0,1,274.13,950.15Z"/><path class="cls-4" d="M288.31,950.15a2.5,2.5,0,0,1-2.5-2.5V906a2.5,2.5,0,0,1,5,0v41.61A2.5,2.5,0,0,1,288.31,950.15Z"/><path class="cls-1" d="M274.06,897.41H161.35a8.32,8.32,0,1,1,0-16.63H274.06a8.32,8.32,0,0,1,0,16.63ZM161.35,884.78a4.32,4.32,0,1,0,0,8.63H274.06a4.32,4.32,0,0,0,0-8.63Z"/><circle class="cls-5" cx="172.14" cy="860.98" r="4.77"/><circle class="cls-5" cx="250.69" cy="861.13" r="4.77"/><path class="cls-5" d="M240,863H182.86a2,2,0,0,1,0-4H240a2,2,0,1,1,0,4Z"/><rect class="cls-5" x="563.01" y="53.33" width="18.86" height="114.79"/><rect class="cls-3" x="581.87" y="53.33" width="37.72" height="114.79"/><rect class="cls-4" x="619.59" y="53.33" width="37.72" height="114.79"/><rect class="cls-6" x="657.3" y="138.95" width="112.26" height="29.17"/><rect class="cls-2" x="657.3" y="122.79" width="100.2" height="16.16"/><path class="cls-3" d="M595,298.1A8,8,0,0,1,588.7,295c-2.29-3.06-1.33-7.11.19-9.67a.56.56,0,0,1,.05-.08c2.51-4.14,8-6.12,14-5.06a2,2,0,0,1-.7,3.94,13.17,13.17,0,0,0-4.14-.1,7.28,7.28,0,0,1,2.89,2.69,7.76,7.76,0,0,1,.76,6.06,7.18,7.18,0,0,1-3.57,4.54A6.9,6.9,0,0,1,595,298.1Zm-2.82-10.42c-.45.91-1.45,3.28-.24,4.9a3.73,3.73,0,0,0,4.45,1.18,3.28,3.28,0,0,0,1.59-2.08,3.79,3.79,0,0,0-.33-2.92,3.6,3.6,0,0,0-2.4-1.6A4.41,4.41,0,0,0,592.14,287.68Z"/><path class="cls-3" d="M541.18,351.49l39.23-9.62a.94.94,0,0,1,.64,1.76l-37.13,19.43c-.22-.89-.45-1.79-.67-2.69C542.45,357.12,541.91,354.69,541.18,351.49Z"/><path class="cls-6" d="M544.06,366.05l20.51-3.91c4.33,9.47,2.71,18.82-2.63,22.56a10.45,10.45,0,0,1-8.89,1.48C547.28,384.34,542.47,375.69,544.06,366.05Z"/><path class="cls-6" d="M603.89,353l-39.32,9.11c2,10,8.92,17.53,17.52,19.22,1.12.22,8.37,1.53,14.75-3C604,373.31,607,363.1,603.89,353Z"/><path class="cls-3" d="M591.15,694.86a2,2,0,0,1-1.9-1.4L571.4,636.57a2,2,0,0,1,3.82-1.2l17.84,56.89a2,2,0,0,1-1.31,2.51A2.08,2.08,0,0,1,591.15,694.86Z"/><path class="cls-2" d="M278.28,538c9.4,1.32,15.66-5.23,16.21-5.83.35.59,5.13,8.15,14.39,8.51,9.69.38,15.11-7.48,15.4-7.92.55.53,8.68,8.18,19.51,5.59a20.08,20.08,0,0,0,8.34-4.28,61,61,0,0,0-84.6-1.68A18.43,18.43,0,0,0,278.28,538Z"/><rect class="cls-3" x="190.13" y="557.04" width="674.8" height="51.72" rx="11.61"/><circle class="cls-6" cx="309.58" cy="503.93" r="12.28"/><rect class="cls-4" x="724.64" y="490.36" width="121.48" height="25.73" rx="2.72"/><rect class="cls-2" x="741.88" y="463.15" width="104.51" height="27.21" rx="4.5"/><path class="cls-1" d="M832.46,484.37H755.79a6.1,6.1,0,0,1-6.09-6.1v-3a6.09,6.09,0,0,1,6.09-6.09h76.67a6.1,6.1,0,0,1,6.1,6.09v3A6.11,6.11,0,0,1,832.46,484.37Zm-76.67-12.23a3.09,3.09,0,0,0-3.09,3.09v3a3.1,3.1,0,0,0,3.09,3.1h76.67a3.1,3.1,0,0,0,3.1-3.1v-3a3.09,3.09,0,0,0-3.1-3.09Z"/><path class="cls-3" d="M732.72,514.72a2,2,0,0,1-2-2V493.27a2,2,0,0,1,4,0v19.45A2,2,0,0,1,732.72,514.72Z"/><path class="cls-3" d="M744.43,514.72a2,2,0,0,1-2-2V493.27a2,2,0,1,1,4,0v19.45A2,2,0,0,1,744.43,514.72Z"/><path class="cls-3" d="M826.94,514.72a2,2,0,0,1-2-2V493.27a2,2,0,0,1,4,0v19.45A2,2,0,0,1,826.94,514.72Z"/><path class="cls-3" d="M838.65,514.72a2,2,0,0,1-2-2V493.27a2,2,0,0,1,4,0v19.45A2,2,0,0,1,838.65,514.72Z"/><path class="cls-1" d="M716.53,516.09H855.78a0,0,0,0,1,0,0v39.23a0,0,0,0,1,0,0H716.53a14.74,14.74,0,0,1-14.74-14.74v-9.75A14.74,14.74,0,0,1,716.53,516.09Z"/><path class="cls-5" d="M864.93,557.32H721.41a21.62,21.62,0,1,1,0-43.23H864.93a2,2,0,0,1,0,4H721.41a17.62,17.62,0,1,0,0,35.23H864.93a2,2,0,0,1,0,4Z"/><path class="cls-3" d="M855.78,537.7H735.18a2,2,0,0,1,0-4h120.6a2,2,0,0,1,0,4Z"/><path class="cls-4" d="M271.16,496h-31.1a2.5,2.5,0,1,1,0-5h31.1a2.5,2.5,0,1,1,0,5Z"/><path class="cls-4" d="M271.16,505.52h-31.1a2.5,2.5,0,1,1,0-5h31.1a2.5,2.5,0,1,1,0,5Z"/><path class="cls-4" d="M473.37,362.09h-31.1a2.5,2.5,0,0,1,0-5h31.1a2.5,2.5,0,0,1,0,5Z"/><path class="cls-4" d="M473.37,371.62h-31.1a2.5,2.5,0,0,1,0-5h31.1a2.5,2.5,0,0,1,0,5Z"/><path class="cls-4" d="M473.37,314.87h-31.1a2.5,2.5,0,0,1,0-5h31.1a2.5,2.5,0,0,1,0,5Z"/><path class="cls-4" d="M473.37,324.4h-31.1a2.5,2.5,0,0,1,0-5h31.1a2.5,2.5,0,0,1,0,5Z"/><path class="cls-4" d="M473.37,252.83h-31.1a2.5,2.5,0,0,1,0-5h31.1a2.5,2.5,0,0,1,0,5Z"/><path class="cls-4" d="M473.37,262.36h-31.1a2.5,2.5,0,0,1,0-5h31.1a2.5,2.5,0,0,1,0,5Z"/><circle class="cls-2" cx="391.02" cy="440.33" r="5.33"/><path class="cls-2" d="M432.08,323.9H408.46V248.33h23.62Zm-19.62-4h15.62V252.33H412.46Z"/><path class="cls-2" d="M612.54,161H588.92V61.62h23.62Zm-19.62-4h15.62V65.62H592.92Z"/><circle class="cls-1" cx="313.21" cy="422.18" r="4.32"/><path class="cls-1" d="M376.68,424.18H322.55a2,2,0,0,1,0-4h54.13a2,2,0,0,1,0,4Z"/><circle class="cls-1" cx="667.11" cy="130.87" r="4.32"/><path class="cls-1" d="M749.13,132.87H680.45a2,2,0,0,1,0-4h68.68a2,2,0,0,1,0,4Z"/><path class="cls-5" d="M665.3,168.42a2,2,0,0,1-2-2v-26a2,2,0,0,1,4,0v26A2,2,0,0,1,665.3,168.42Z"/><path class="cls-5" d="M676.45,168.52a2,2,0,0,1-2-2v-26a2,2,0,1,1,4,0v26A2,2,0,0,1,676.45,168.52Z"/><path class="cls-5" d="M746.35,168.42a2,2,0,0,1-2-2v-26a2,2,0,1,1,4,0v26A2,2,0,0,1,746.35,168.42Z"/><path class="cls-5" d="M757.5,168.52a2,2,0,0,1-2-2v-26a2,2,0,1,1,4,0v26A2,2,0,0,1,757.5,168.52Z"/><path class="cls-3" d="M654,149.69H622.9a2,2,0,0,1,0-4H654a2,2,0,0,1,0,4Z"/><path class="cls-3" d="M654,159.22H622.9a2,2,0,0,1,0-4H654a2,2,0,0,1,0,4Z"/><path class="cls-3" d="M654,66.65H622.9a2,2,0,1,1,0-4H654a2,2,0,0,1,0,4Z"/><path class="cls-3" d="M654,76.18H622.9a2,2,0,0,1,0-4H654a2,2,0,0,1,0,4Z"/><path class="cls-3" d="M503.37,730.82a2,2,0,0,1-1.87-1.28l-22.1-57.18c-15.32-39.93-5.89-62.1-5.48-63a2,2,0,1,1,3.66,1.62h0c-.09.21-9.12,21.74,5.55,60l22.1,57.18a2,2,0,0,1-1.14,2.59A2,2,0,0,1,503.37,730.82Z"/></svg>